<?xml version="1.0" encoding="UTF-8"?>
<svg width="2000px" height="2000px" viewBox="0 0 2000 2000" version="1.1" xmlns="http://www.w3.org/2000/svg" xmlns:xlink="http://www.w3.org/1999/xlink">
    <title>Group 2</title>
    <g id="Page-1" stroke="none" stroke-width="1" fill="none" fill-rule="evenodd">
        <g id="Group-2">
            <circle id="Oval" stroke="#047BFC" stroke-width="20" cx="1000" cy="1000" r="990"></circle>
            <g id="tt" transform="translate(244.067797, 731.203390)" fill-rule="nonzero">
                <g id="Group" transform="translate(756.000000, 270.483051) scale(-1, 1) rotate(-180.000000) translate(-756.000000, -270.483051) translate(0.000000, 0.983051)">
                    <path d="M0,269.491525 L0,0 L269.491525,0 L538.983051,0 L538.983051,269.491525 L538.983051,538.983051 L269.491525,538.983051 L0,538.983051 L0,269.491525 Z M298.983051,423.389831 C313.220339,416.271186 328.813559,398.983051 330.847458,388.474576 C332.881356,377.288136 319.661017,335.932203 301.694915,295.932203 C290.508475,271.525424 290.847458,271.186441 324.745763,271.186441 L347.457627,271.186441 L362.033898,310.169492 C369.830508,331.864407 378.305085,356.610169 380.338983,365.423729 C382.711864,374.237288 385.423729,382.711864 386.779661,384.40678 C391.186441,389.491525 406.779661,376.610169 412.20339,364.40678 C416.271186,354.576271 415.932203,350.169492 410.508475,328.135593 C406.779661,314.237288 401.694915,296.949153 398.644068,289.830508 C391.525424,273.559322 391.864407,268.135593 399.322034,269.491525 C402.372881,270.169492 409.491525,271.864407 414.915254,272.881356 C420.338983,273.898305 429.491525,280 435.254237,286.440678 C443.050847,294.576271 447.457627,296.949153 450.847458,294.915254 C458.305085,290.169492 451.186441,274.576271 437.966102,266.779661 C431.864407,263.050847 416.610169,257.627119 404.067797,254.576271 L381.355932,249.152542 L368.474576,215.932203 C361.355932,197.966102 353.898305,171.525424 351.525424,157.627119 C349.491525,143.728814 346.440678,132.20339 344.745763,132.20339 C332.881356,132.20339 315.254237,155.254237 315.254237,170.847458 C315.254237,177.966102 330.508475,228.813559 337.627119,246.779661 C338.983051,249.830508 332.542373,250.847458 310.508475,250.847458 C276.610169,250.847458 278.305085,252.542373 262.711864,203.050847 C255.254237,178.305085 253.898305,168.813559 254.915254,142.711864 C255.932203,107.457627 254.576271,105.423729 231.186441,111.525424 C213.220339,116.610169 206.101695,125.762712 201.016949,149.491525 C192.881356,189.830508 168.813559,211.186441 131.864407,211.186441 C114.237288,211.186441 111.864407,212.20339 111.864407,217.966102 C111.864407,229.491525 125.423729,247.118644 141.016949,256.271186 C161.694915,268.474576 182.033898,273.898305 214.576271,276.610169 C229.830508,277.627119 243.389831,279.661017 244.40678,281.016949 C249.152542,285.423729 270.847458,345.423729 279.322034,376.271186 C288.135593,409.152542 287.79661,413.220339 274.237288,413.559322 C264.745763,413.559322 233.220339,403.050847 186.101695,384.40678 C135.254237,364.40678 114.237288,361.355932 92.8813559,371.525424 C83.0508475,376.271186 67.7966102,392.20339 67.7966102,397.627119 C67.7966102,398.305085 78.9830508,398.305085 92.5423729,397.627119 C113.559322,396.271186 123.050847,397.966102 159.322034,408.474576 C182.711864,415.254237 211.525424,423.050847 223.728814,425.762712 C248.135593,430.847458 287.118644,429.830508 298.983051,423.389831 Z" id="Shape" fill="#047BFC"></path>
                    <path d="M182.711864,245.423729 C156.949153,237.627119 155.932203,232.542373 177.966102,222.372881 C191.186441,216.610169 198.644068,210.169492 204.067797,201.694915 L211.186441,189.152542 L218.644068,214.237288 C222.711864,227.79661 227.118644,241.694915 228.813559,245.084746 C230.847458,250.169492 229.152542,250.847458 214.915254,250.508475 C205.762712,250.508475 191.186441,248.135593 182.711864,245.423729 Z" id="Path" fill="#047BFC"></path>
                    <path d="M989.152542,512.542373 L908.474576,490.169492 L908.474576,467.79661 L908.474576,445.423729 L957.627119,432.542373 C984.745763,425.423729 1007.79661,417.966102 1008.81356,416.610169 C1009.83051,414.915254 996.610169,413.559322 980,413.559322 C963.050847,413.559322 949.152542,413.220339 948.813559,412.881356 C948.813559,412.20339 942.372881,369.830508 934.237288,318.644068 L920,225.423729 L927.79661,224.40678 C944.40678,222.033898 1007.79661,230.508475 1022.0339,236.949153 C1042.37288,245.762712 1066.77966,269.152542 1077.28814,289.830508 C1084.40678,303.728814 1086.10169,311.525424 1086.10169,333.898305 C1086.44068,356.610169 1085.08475,363.389831 1078.30508,375.254237 C1070.50847,388.474576 1054.23729,402.372881 1040,407.79661 C1035.25424,409.491525 1033.89831,413.898305 1033.89831,426.779661 L1033.89831,443.389831 L1009.83051,448.813559 C996.610169,451.864407 976.271186,455.932203 964.067797,458.305085 C942.372881,462.033898 936.949153,465.762712 948.474576,469.152542 C951.525424,469.830508 977.966102,476.949153 1006.77966,484.745763 C1035.59322,492.542373 1063.05085,500 1067.79661,501.355932 C1074.91525,503.728814 1076.27119,506.101695 1077.28814,519.661017 C1077.9661,531.186441 1076.94915,535.59322 1073.89831,535.254237 C1071.52542,534.915254 1033.22034,524.745763 989.152542,512.542373 Z M1023.72881,382.372881 C1053.89831,367.118644 1062.71186,327.457627 1042.71186,293.559322 C1030.84746,273.559322 1011.86441,261.355932 985.084746,256.610169 C972.881356,254.576271 962.033898,253.898305 961.016949,254.915254 C957.966102,257.966102 976.949153,384.745763 981.016949,387.118644 C988.474576,392.20339 1008.81356,389.830508 1023.72881,382.372881 Z" id="Shape" fill="#047BFC"></path>
                    <path d="M1357.28814,408.813559 C1356.27119,404.40678 1355.9322,396.610169 1356.61017,391.186441 C1357.28814,383.389831 1360.33898,381.016949 1372.20339,376.949153 C1385.42373,372.542373 1386.77966,371.186441 1385.08475,363.050847 C1383.72881,358.305085 1377.62712,322.372881 1371.18644,283.389831 L1359.66102,212.542373 L1390.16949,175.932203 L1421.01695,138.983051 L1439.32203,138.983051 L1457.9661,138.983051 L1425.42373,178.644068 C1407.79661,200.338983 1393.22034,220.338983 1393.22034,223.050847 C1393.22034,225.762712 1396.27119,245.762712 1399.66102,267.457627 C1403.38983,289.152542 1408.81356,322.711864 1411.52542,342.372881 C1414.57627,362.033898 1417.9661,381.355932 1418.64407,385.084746 C1420.33898,392.881356 1421.35593,392.20339 1375.59322,410.508475 L1359.32203,416.949153 L1357.28814,408.813559 Z" id="Path" fill="#047BFC"></path>
                    <path d="M1123.72881,407.118644 C1108.81356,400.677966 1100,386.779661 1100,369.491525 C1100,350.169492 1109.49153,337.627119 1128.81356,331.864407 C1154.57627,324.067797 1181.69492,347.118644 1178.30508,374.237288 C1175.25424,398.983051 1145.76271,416.949153 1123.72881,407.118644 Z M1148.47458,384.40678 C1157.9661,377.966102 1158.30508,362.711864 1149.49153,354.576271 C1141.35593,347.118644 1130.84746,349.830508 1123.38983,361.016949 C1117.62712,369.830508 1120.67797,380 1131.52542,386.101695 C1139.32203,390.847458 1139.66102,390.847458 1148.47458,384.40678 Z" id="Shape" fill="#047BFC"></path>
                    <path d="M1455.59322,405.423729 C1440.33898,398.644068 1433.89831,387.79661 1433.89831,368.474576 C1433.89831,354.915254 1435.59322,350.169492 1443.38983,342.372881 C1476.94915,309.152542 1528.47458,348.135593 1506.44068,390.169492 C1501.35593,400.338983 1484.0678,410.169492 1472.20339,410.169492 C1468.81356,409.830508 1461.35593,407.79661 1455.59322,405.423729 Z M1484.74576,383.050847 C1493.55932,374.237288 1493.22034,364.40678 1484.40678,355.59322 C1477.62712,348.813559 1468.13559,349.152542 1458.64407,356.610169 C1451.52542,362.372881 1453.55932,378.644068 1461.69492,384.40678 C1471.86441,391.525424 1476.61017,391.186441 1484.74576,383.050847 Z" id="Shape" fill="#047BFC"></path>
                    <path d="M849.152542,401.355932 C840,398.305085 829.491525,393.898305 825.762712,391.186441 C815.59322,384.067797 809.152542,385.084746 811.186441,393.220339 C812.881356,399.322034 811.186441,400 796.610169,400 C777.288136,400 780.677966,408.813559 767.457627,322.711864 L758.305085,264.067797 L769.491525,252.542373 C777.627119,244.40678 784.067797,240.677966 790.847458,240.677966 C804.067797,240.677966 803.389831,239.661017 764.745763,186.440678 L732.20339,142.372881 L752.20339,142.372881 L772.20339,142.372881 L801.355932,181.694915 C834.576271,225.423729 833.898305,219.322034 806.440678,249.152542 L790.847458,266.440678 L797.966102,310.169492 C802.033898,334.576271 806.440678,356.271186 808.135593,358.983051 C812.542373,366.101695 844.40678,379.661017 856.949153,379.661017 C864.40678,379.661017 870.847458,376.949153 876.610169,371.186441 C886.779661,361.016949 886.440678,355.932203 872.881356,276.610169 C868.813559,252.20339 866.101695,231.186441 866.779661,229.830508 C868.135593,227.118644 901.694915,226.101695 901.694915,228.813559 C901.694915,229.491525 904.067797,247.457627 907.118644,268.474576 C910.169492,289.491525 912.881356,323.728814 913.220339,344.745763 C913.559322,382.711864 913.559322,382.711864 903.389831,392.881356 C890.508475,405.762712 872.20339,408.474576 849.152542,401.355932 Z" id="Path" fill="#047BFC"></path>
                    <path d="M1290.50847,403.389831 C1283.72881,401.355932 1271.86441,396.949153 1264.40678,393.220339 C1247.45763,384.745763 1243.05085,384.745763 1245.76271,393.220339 C1247.79661,399.322034 1246.44068,400 1231.18644,400 L1214.57627,400 L1205.76271,340 C1200.67797,306.779661 1195.59322,276.610169 1194.57627,272.881356 C1191.86441,262.372881 1211.52542,240.677966 1224.0678,240.677966 C1229.49153,240.677966 1233.89831,238.983051 1233.89831,236.949153 C1233.89831,234.915254 1220.33898,214.915254 1204.0678,192.20339 C1187.45763,169.491525 1172.88136,148.813559 1171.52542,146.779661 C1169.83051,143.389831 1173.89831,142.372881 1188.81356,142.711864 L1208.47458,142.711864 L1236.61017,181.355932 C1251.86441,202.372881 1264.40678,221.016949 1264.40678,222.711864 C1264.40678,224.40678 1260.33898,229.491525 1255.59322,234.237288 C1250.84746,238.644068 1242.37288,248.135593 1236.61017,254.915254 L1226.77966,267.79661 L1233.89831,312.542373 C1237.62712,337.288136 1242.0339,358.644068 1243.38983,360 C1244.74576,361.016949 1253.22034,366.101695 1262.37288,370.847458 C1292.54237,386.779661 1318.64407,379.322034 1318.64407,354.576271 C1318.64407,348.135593 1315.59322,322.711864 1311.52542,297.966102 C1307.79661,272.881356 1303.72881,246.779661 1302.71186,239.661017 L1300.67797,226.779661 L1318.98305,227.79661 L1337.28814,228.813559 L1345.42373,295.254237 C1353.55932,360.338983 1353.55932,362.372881 1347.79661,377.627119 C1338.64407,401.694915 1319.32203,410.508475 1290.50847,403.389831 Z" id="Path" fill="#047BFC"></path>
                    <path d="M1120.33898,298.983051 C1101.69492,292.881356 1091.52542,278.644068 1091.52542,258.305085 C1091.52542,245.762712 1093.55932,241.355932 1103.05085,231.864407 C1112.88136,222.033898 1116.94915,220.338983 1130.50847,220.338983 C1144.0678,220.338983 1148.13559,222.033898 1157.9661,231.864407 C1167.45763,241.355932 1169.49153,246.101695 1169.49153,257.288136 C1169.49153,276.271186 1162.0339,289.491525 1147.79661,296.271186 C1135.59322,302.033898 1131.52542,302.372881 1120.33898,298.983051 Z M1145.08475,273.559322 C1150.50847,269.491525 1150.16949,254.237288 1144.40678,246.779661 C1137.62712,237.627119 1123.38983,238.983051 1116.61017,249.152542 C1103.72881,269.152542 1125.76271,288.474576 1145.08475,273.559322 Z" id="Shape" fill="#047BFC"></path>
                    <path d="M1448.47458,296.610169 C1436.27119,291.525424 1423.72881,273.559322 1423.72881,261.694915 C1423.72881,238.983051 1442.0339,220.338983 1464.40678,220.338983 C1507.45763,220.338983 1519.32203,280.338983 1479.66102,296.949153 C1465.42373,302.711864 1462.37288,302.711864 1448.47458,296.610169 Z M1482.71186,266.779661 C1488.13559,258.305085 1478.30508,242.711864 1467.11864,241.355932 C1455.25424,240 1446.77966,249.152542 1448.13559,262.372881 C1450.16949,282.033898 1471.52542,284.745763 1482.71186,266.779661 Z" id="Shape" fill="#047BFC"></path>
                    <path d="M969.491525,49.1525424 C969.491525,29.8305085 970.847458,16.9491525 972.881356,16.9491525 C974.915254,16.9491525 976.271186,23.0508475 976.271186,30.1694915 C976.271186,43.7288136 983.728814,55.5932203 991.186441,53.220339 C993.220339,52.5423729 995.254237,44.0677966 995.932203,34.5762712 C996.610169,21.3559322 998.305085,16.9491525 1002.37288,16.9491525 C1006.77966,16.9491525 1007.45763,20.3389831 1006.10169,35.9322034 C1004.40678,56.9491525 999.661017,62.0338983 985.762712,59.6610169 C976.949153,57.9661017 976.271186,58.6440678 976.271186,69.4915254 C976.271186,75.9322034 974.915254,81.3559322 972.881356,81.3559322 C970.847458,81.3559322 969.491525,68.4745763 969.491525,49.1525424 Z" id="Path" fill="#000000"></path>
                    <path d="M1135.59322,49.1525424 C1135.59322,29.8305085 1136.94915,16.9491525 1138.98305,16.9491525 C1141.01695,16.9491525 1142.37288,23.0508475 1142.37288,30.1694915 C1142.37288,43.7288136 1149.83051,55.5932203 1157.28814,53.220339 C1159.32203,52.5423729 1161.35593,44.0677966 1162.0339,34.5762712 C1162.71186,21.3559322 1164.40678,16.9491525 1168.47458,16.9491525 C1172.88136,16.9491525 1173.55932,20.3389831 1172.20339,35.9322034 C1170.50847,56.9491525 1165.76271,62.0338983 1151.86441,59.6610169 C1143.05085,57.9661017 1142.37288,58.6440678 1142.37288,69.4915254 C1142.37288,75.9322034 1141.01695,81.3559322 1138.98305,81.3559322 C1136.94915,81.3559322 1135.59322,68.4745763 1135.59322,49.1525424 Z" id="Path" fill="#000000"></path>
                    <path d="M723.728814,56.9491525 C737.627119,12.2033898 739.661017,9.15254237 746.101695,26.440678 C747.79661,31.5254237 750.169492,37.9661017 751.186441,40.6779661 C752.542373,44.0677966 754.915254,40.6779661 758.305085,31.5254237 C761.016949,23.3898305 765.084746,16.9491525 767.457627,16.9491525 C769.830508,16.9491525 774.237288,26.1016949 777.288136,37.2881356 C784.067797,61.3559322 784.067797,62.0338983 778.983051,60.3389831 C776.949153,59.6610169 773.220339,52.8813559 771.186441,45.4237288 L767.118644,32.2033898 L763.050847,42.3728814 C761.016949,48.1355932 758.305085,54.5762712 757.627119,56.9491525 C754.915254,65.0847458 749.830508,61.0169492 744.745763,46.779661 L740,32.2033898 L735.59322,46.779661 C733.220339,54.5762712 729.152542,61.0169492 726.779661,61.0169492 C724.40678,61.0169492 722.711864,58.9830508 723.728814,56.9491525 Z" id="Path" fill="#000000"></path>
                    <path d="M794.915254,56.9491525 C808.813559,12.2033898 810.847458,9.15254237 817.288136,26.440678 C818.983051,31.5254237 821.355932,37.9661017 822.372881,40.6779661 C823.728814,44.0677966 826.101695,40.6779661 829.491525,31.5254237 C832.20339,23.3898305 836.271186,16.9491525 838.644068,16.9491525 C841.016949,16.9491525 845.423729,26.1016949 848.474576,37.2881356 C855.254237,61.3559322 855.254237,62.0338983 850.169492,60.3389831 C848.135593,59.6610169 844.40678,52.8813559 842.372881,45.4237288 L838.305085,32.2033898 L834.237288,42.3728814 C832.20339,48.1355932 829.491525,54.5762712 828.813559,56.9491525 C826.101695,65.0847458 821.016949,61.0169492 815.932203,46.779661 L811.186441,32.2033898 L806.779661,46.779661 C804.40678,54.5762712 800.338983,61.0169492 797.966102,61.0169492 C795.59322,61.0169492 793.898305,58.9830508 794.915254,56.9491525 Z" id="Path" fill="#000000"></path>
                    <path d="M867.79661,59.6610169 C867.79661,50.1694915 880,16.9491525 883.389831,16.9491525 C885.762712,16.9491525 889.830508,23.0508475 891.864407,30.5084746 C896.610169,46.1016949 900,45.4237288 903.050847,28.8135593 C904.40678,22.0338983 907.457627,16.9491525 910.169492,16.9491525 C913.898305,16.9491525 916.610169,23.0508475 927.118644,56.9491525 C928.135593,58.9830508 926.440678,61.0169492 923.728814,61.0169492 C921.016949,61.0169492 917.966102,56.2711864 916.610169,49.1525424 C913.559322,32.2033898 909.491525,31.5254237 905.084746,47.4576271 C900.677966,63.3898305 896.271186,64.7457627 891.186441,51.8644068 C884.067797,32.2033898 883.728814,31.8644068 879.661017,45.4237288 C877.627119,52.8813559 873.898305,59.6610169 871.864407,60.3389831 C869.491525,61.0169492 867.79661,60.6779661 867.79661,59.6610169 Z" id="Path" fill="#000000"></path>
                    <path d="M1028.47458,55.2542373 C1021.69492,48.4745763 1028.13559,44.4067797 1035.59322,50.8474576 C1041.01695,55.2542373 1050.84746,53.220339 1050.84746,47.4576271 C1050.84746,45.7627119 1047.11864,44.0677966 1042.71186,44.0677966 C1037.9661,44.0677966 1031.86441,41.6949153 1029.15254,38.6440678 C1017.28814,27.1186441 1025.42373,16.9491525 1046.44068,16.9491525 L1061.01695,16.9491525 L1061.01695,33.559322 C1061.01695,52.2033898 1055.25424,61.0169492 1042.37288,61.0169492 C1037.9661,61.0169492 1031.86441,58.3050847 1028.47458,55.2542373 Z M1050.16949,31.5254237 C1048.81356,23.7288136 1033.89831,21.0169492 1033.89831,28.1355932 C1033.89831,31.1864407 1035.9322,34.2372881 1038.30508,34.9152542 C1046.77966,38.6440678 1051.18644,37.2881356 1050.16949,31.5254237 Z" id="Shape" fill="#000000"></path>
                    <path d="M1085.42373,55.5932203 C1080.33898,52.2033898 1077.9661,47.1186441 1077.9661,38.9830508 C1077.9661,25.0847458 1085.42373,16.9491525 1098.30508,16.9491525 C1111.18644,16.9491525 1118.64407,25.0847458 1118.64407,38.9830508 C1118.64407,50.8474576 1109.15254,61.0169492 1098.30508,61.0169492 C1095.25424,61.0169492 1089.49153,58.6440678 1085.42373,55.5932203 Z M1106.77966,46.1016949 C1113.55932,35.9322034 1108.81356,23.7288136 1098.30508,23.7288136 C1087.79661,23.7288136 1083.05085,35.9322034 1089.83051,46.1016949 C1092.54237,50.5084746 1096.61017,54.2372881 1098.30508,54.2372881 C1100,54.2372881 1104.0678,50.5084746 1106.77966,46.1016949 Z" id="Shape" fill="#000000"></path>
                    <path d="M1194.57627,55.2542373 C1187.79661,48.4745763 1194.23729,44.4067797 1201.69492,50.8474576 C1207.11864,55.2542373 1216.94915,53.220339 1216.94915,47.4576271 C1216.94915,45.7627119 1213.22034,44.0677966 1208.81356,44.0677966 C1204.0678,44.0677966 1197.9661,41.6949153 1195.25424,38.6440678 C1183.38983,27.1186441 1191.52542,16.9491525 1212.54237,16.9491525 L1227.11864,16.9491525 L1227.11864,33.559322 C1227.11864,52.2033898 1221.35593,61.0169492 1208.47458,61.0169492 C1204.0678,61.0169492 1197.9661,58.3050847 1194.57627,55.2542373 Z M1216.27119,31.5254237 C1214.91525,23.7288136 1200,21.0169492 1200,28.1355932 C1200,31.1864407 1202.0339,34.2372881 1204.40678,34.9152542 C1212.88136,38.6440678 1217.28814,37.2881356 1216.27119,31.5254237 Z" id="Shape" fill="#000000"></path>
                    <path d="M1248.81356,55.2542373 C1242.0339,48.4745763 1248.47458,44.4067797 1255.9322,50.8474576 C1261.35593,55.2542373 1271.18644,53.220339 1271.18644,47.4576271 C1271.18644,45.7627119 1267.45763,44.0677966 1263.05085,44.0677966 C1258.30508,44.0677966 1252.20339,41.6949153 1249.49153,38.6440678 C1237.62712,27.1186441 1245.76271,16.9491525 1266.77966,16.9491525 L1281.35593,16.9491525 L1281.35593,33.559322 C1281.35593,52.2033898 1275.59322,61.0169492 1262.71186,61.0169492 C1258.30508,61.0169492 1252.20339,58.3050847 1248.81356,55.2542373 Z M1270.50847,31.5254237 C1269.15254,23.7288136 1254.23729,21.0169492 1254.23729,28.1355932 C1254.23729,31.1864407 1256.27119,34.2372881 1258.64407,34.9152542 C1267.11864,38.6440678 1271.52542,37.2881356 1270.50847,31.5254237 Z" id="Shape" fill="#000000"></path>
                    <path d="M1337.28814,56.2711864 C1329.83051,50.8474576 1328.47458,30.5084746 1335.25424,22.3728814 C1341.35593,15.2542373 1357.28814,15.5932203 1364.74576,22.7118644 C1368.81356,26.779661 1369.15254,28.8135593 1366.10169,29.8305085 C1364.0678,30.5084746 1360.33898,29.4915254 1358.30508,27.4576271 C1351.52542,20.6779661 1342.71186,23.3898305 1340.33898,32.8813559 C1336.27119,48.1355932 1347.45763,58.9830508 1356.94915,49.1525424 C1362.71186,43.3898305 1369.49153,42.3728814 1369.49153,47.1186441 C1369.49153,51.5254237 1355.59322,61.0169492 1349.15254,61.0169492 C1346.10169,61.0169492 1340.67797,58.9830508 1337.28814,56.2711864 Z" id="Path" fill="#000000"></path>
                    <path d="M1390.50847,55.5932203 C1385.42373,52.2033898 1383.05085,47.1186441 1383.05085,38.9830508 C1383.05085,25.0847458 1390.50847,16.9491525 1403.38983,16.9491525 C1416.27119,16.9491525 1423.72881,25.0847458 1423.72881,38.9830508 C1423.72881,50.8474576 1414.23729,61.0169492 1403.38983,61.0169492 C1400.33898,61.0169492 1394.57627,58.6440678 1390.50847,55.5932203 Z M1411.86441,46.1016949 C1418.64407,35.9322034 1413.89831,23.7288136 1403.38983,23.7288136 C1392.88136,23.7288136 1388.13559,35.9322034 1394.91525,46.1016949 C1397.62712,50.5084746 1401.69492,54.2372881 1403.38983,54.2372881 C1405.08475,54.2372881 1409.15254,50.5084746 1411.86441,46.1016949 Z" id="Shape" fill="#000000"></path>
                    <path d="M1444.0678,38.3050847 C1444.0678,26.440678 1445.42373,16.9491525 1447.45763,16.9491525 C1449.49153,16.9491525 1450.84746,24.4067797 1450.84746,33.559322 C1450.84746,45.7627119 1452.20339,50.8474576 1456.27119,52.2033898 C1465.42373,55.5932203 1471.18644,47.7966102 1471.18644,31.8644068 C1471.18644,23.7288136 1472.88136,16.9491525 1474.57627,16.9491525 C1476.61017,16.9491525 1477.9661,23.7288136 1477.9661,31.8644068 C1477.9661,40.6779661 1480,48.1355932 1483.05085,50.8474576 C1491.52542,57.6271186 1498.30508,49.1525424 1498.30508,31.8644068 C1498.30508,23.7288136 1500,16.9491525 1501.69492,16.9491525 C1503.72881,16.9491525 1505.08475,25.0847458 1505.08475,35.2542373 C1505.08475,57.6271186 1499.32203,64.0677966 1484.40678,58.6440678 C1478.98305,56.6101695 1473.89831,56.2711864 1472.88136,57.6271186 C1471.86441,59.3220339 1465.08475,60.3389831 1457.62712,60 L1444.0678,59.6610169 L1444.0678,38.3050847 Z" id="Path" fill="#000000"></path>
                    <path d="M938.983051,22.0338983 C938.983051,19.3220339 941.355932,16.9491525 944.067797,16.9491525 C946.779661,16.9491525 949.152542,19.3220339 949.152542,22.0338983 C949.152542,24.7457627 946.779661,27.1186441 944.067797,27.1186441 C941.355932,27.1186441 938.983051,24.7457627 938.983051,22.0338983 Z" id="Path" fill="#000000"></path>
                    <path d="M1301.69492,22.0338983 C1301.69492,19.3220339 1304.0678,16.9491525 1306.77966,16.9491525 C1309.49153,16.9491525 1311.86441,19.3220339 1311.86441,22.0338983 C1311.86441,24.7457627 1309.49153,27.1186441 1306.77966,27.1186441 C1304.0678,27.1186441 1301.69492,24.7457627 1301.69492,22.0338983 Z" id="Path" fill="#000000"></path>
                </g>
            </g>
        </g>
    </g>
</svg>