<?xml version="1.0" encoding="UTF-8" standalone="no"?><!-- Generator: Gravit.io --><svg xmlns="http://www.w3.org/2000/svg" xmlns:xlink="http://www.w3.org/1999/xlink" style="isolation:isolate" viewBox="0 0 595.276 217.304"><clipPath id="_clipPath_3DQNHdNxhjkACLJFm6BZU2bISneJ9g5o"><path d=" M 0 0 L 595.276 0 L 595.276 217.304 L 0 217.304 L 0 0 Z " fill="rgb(255,255,255)"/></clipPath><g clip-path="url(#_clipPath_3DQNHdNxhjkACLJFm6BZU2bISneJ9g5o)"><g><path d=" M 165.217 38.206 C 162.399 37.685 159.724 34.897 159.214 31.936 C 158.704 28.977 160.464 27.005 163.177 27.605 C 165.89 28.205 168.637 31.087 169.252 33.968 C 169.867 36.849 168.035 38.726 165.217 38.206 Z " fill="rgb(63,63,62)"/><path d=" M 37.087 166.21 C 34.203 165.606 31.323 162.863 30.73 160.143 C 30.136 157.423 32.114 155.649 35.077 156.148 C 38.04 156.648 40.825 159.321 41.34 162.145 C 41.855 164.968 39.971 166.814 37.087 166.21 Z " fill="rgb(63,63,62)"/><path d=" M 186.365 59.053 C 183.403 58.546 180.612 55.875 180.091 53.059 C 179.569 50.243 181.445 48.411 184.328 49.022 C 187.211 49.634 190.096 52.376 190.698 55.087 C 191.299 57.798 189.327 59.559 186.365 59.053 Z " fill="rgb(63,63,62)"/><path d=" M 58.19 187.619 C 55.476 187.029 52.735 184.148 52.129 181.26 C 51.523 178.372 53.364 176.483 56.183 176.995 C 59.002 177.507 61.67 180.292 62.171 183.259 C 62.672 186.224 60.904 188.209 58.19 187.619 Z " fill="rgb(63,63,62)"/><path d=" M 184.481 166.087 C 181.598 166.7 179.722 164.87 180.245 162.055 C 180.768 159.241 183.559 156.57 186.522 156.063 C 189.483 155.555 191.456 157.314 190.854 160.023 C 190.251 162.733 187.364 165.475 184.481 166.087 Z " fill="rgb(63,63,62)"/><path d=" M 202.579 86.578 C 199.479 86.312 196.756 83.915 196.448 81.218 C 196.14 78.521 198.327 76.622 201.388 77.01 C 204.448 77.397 207.28 79.829 207.628 82.405 C 207.977 84.98 205.68 86.845 202.579 86.578 Z " fill="rgb(63,63,62)"/><path d=" M 209.296 112.12 C 206.162 112.182 203.666 110.084 203.664 107.446 C 203.663 104.808 206.156 102.713 209.29 102.779 C 212.424 102.845 215.038 104.943 215.04 107.452 C 215.042 109.961 212.43 112.057 209.296 112.12 Z " fill="rgb(63,63,62)"/><path d=" M 201.291 138.774 C 198.234 139.17 196.055 137.276 196.371 134.58 C 196.687 131.883 199.414 129.481 202.512 129.206 C 205.61 128.931 207.898 130.788 207.541 133.363 C 207.184 135.939 204.348 138.378 201.291 138.774 Z " fill="rgb(63,63,62)"/><path d=" M 84.234 21.607 C 81.537 21.91 79.633 19.717 80.018 16.655 C 80.403 13.593 82.834 10.765 85.409 10.423 C 87.985 10.081 89.852 12.383 89.588 15.485 C 89.325 18.586 86.931 21.304 84.234 21.607 Z " fill="rgb(63,63,62)"/><path d=" M 110.459 14.435 C 107.821 14.433 105.722 11.936 105.784 8.802 C 105.847 5.668 107.942 3.057 110.451 3.06 C 112.96 3.061 115.059 5.676 115.126 8.81 C 115.192 11.944 113.097 14.437 110.459 14.435 Z " fill="rgb(63,63,62)"/><path d=" M 137.603 21.75 C 134.906 21.433 132.5 18.706 132.221 15.609 C 131.943 12.512 133.796 10.226 136.372 10.584 C 138.947 10.943 141.391 13.78 141.791 16.835 C 142.192 19.891 140.3 22.067 137.603 21.75 Z " fill="rgb(63,63,62)"/><path d=" M 19.287 138.675 C 16.229 138.28 13.392 135.842 13.037 133.267 C 12.681 130.692 14.972 128.834 18.07 129.107 C 21.169 129.381 23.894 131.782 24.209 134.479 C 24.524 137.175 22.345 139.07 19.287 138.675 Z " fill="rgb(63,63,62)"/><path d=" M 11.316 112.893 C 8.183 112.82 5.563 110.715 5.554 108.206 C 5.545 105.697 8.149 103.608 11.284 103.553 C 14.418 103.497 16.921 105.601 16.93 108.239 C 16.938 110.876 14.45 112.966 11.316 112.893 Z " fill="rgb(63,63,62)"/><path d=" M 18.024 86.479 C 14.924 86.747 12.627 84.884 12.977 82.309 C 13.327 79.733 16.16 77.3 19.22 76.911 C 22.28 76.522 24.465 78.421 24.156 81.118 C 23.846 83.814 21.124 86.211 18.024 86.479 Z " fill="rgb(63,63,62)"/><path d=" M 135.936 204.618 C 133.36 204.971 131.502 202.678 131.775 199.579 C 132.048 196.481 134.45 193.757 137.147 193.445 C 139.844 193.133 141.74 195.316 141.345 198.374 C 140.951 201.432 138.512 204.265 135.936 204.618 Z " fill="rgb(63,63,62)"/><path d=" M 110.876 212.081 C 108.367 212.09 106.276 209.485 106.22 206.351 C 106.164 203.216 108.268 200.713 110.906 200.706 C 113.543 200.698 115.634 203.187 115.562 206.321 C 115.489 209.454 113.385 212.073 110.876 212.081 Z " fill="rgb(63,63,62)"/><path d=" M 84.974 204.661 C 82.399 204.313 79.963 201.482 79.573 198.422 C 79.182 195.362 81.081 193.175 83.778 193.483 C 86.475 193.792 88.873 196.513 89.142 199.613 C 89.411 202.712 87.55 205.009 84.974 204.661 Z " fill="rgb(63,63,62)"/><path d=" M 56.332 38.12 C 53.514 38.63 51.673 36.739 52.277 33.85 C 52.881 30.961 55.619 28.08 58.334 27.492 C 61.048 26.904 62.817 28.891 62.317 31.857 C 61.817 34.825 59.151 37.61 56.332 38.12 Z " fill="rgb(63,63,62)"/><path d=" M 163.322 187.505 C 160.609 188.107 158.85 186.138 159.361 183.178 C 159.873 180.219 162.55 177.43 165.367 176.908 C 168.185 176.387 170.016 178.262 169.4 181.142 C 168.784 184.021 166.035 186.904 163.322 187.505 Z " fill="rgb(63,63,62)"/><path d=" M 35.234 58.966 C 32.271 59.465 30.292 57.688 30.885 54.966 C 31.478 52.245 34.357 49.502 37.24 48.9 C 40.124 48.297 42.009 50.144 41.496 52.969 C 40.983 55.794 38.196 58.467 35.234 58.966 Z " fill="rgb(63,63,62)"/><path d=" M 153.9 49.291 C 150.472 48.91 147.42 45.747 147.056 42.179 C 146.692 38.609 149.055 36.023 152.362 36.488 C 155.67 36.952 158.798 40.224 159.283 43.71 C 159.767 47.195 157.329 49.671 153.9 49.291 Z " fill="rgb(63,63,62)"/><path d=" M 48.055 156.076 C 44.565 155.614 41.304 152.489 40.857 149.162 C 40.409 145.836 43.011 143.442 46.583 143.787 C 50.156 144.133 53.31 147.183 53.675 150.627 C 54.039 154.071 51.545 156.539 48.055 156.076 Z " fill="rgb(63,63,62)"/><path d=" M 174.752 69.912 C 171.188 69.547 168.025 66.488 167.641 63.052 C 167.258 59.615 169.727 57.169 173.206 57.653 C 176.683 58.137 179.954 61.274 180.422 64.591 C 180.891 67.909 178.314 70.277 174.752 69.912 Z " fill="rgb(63,63,62)"/><path d=" M 68.864 177.17 C 65.54 176.726 62.416 173.465 61.951 169.973 C 61.487 166.481 63.952 163.983 67.393 164.346 C 70.835 164.709 73.885 167.863 74.232 171.436 C 74.578 175.01 72.188 177.615 68.864 177.17 Z " fill="rgb(246,147,53)"/><path d=" M 174.752 156.117 C 171.265 156.599 168.789 154.163 169.171 150.739 C 169.554 147.315 172.719 144.267 176.29 143.906 C 179.86 143.544 182.446 145.905 181.981 149.208 C 181.516 152.511 178.239 155.634 174.752 156.117 Z " fill="rgb(63,63,62)"/><path d=" M 188.951 98.362 C 185.282 98.252 182.221 95.465 182.055 92.137 C 181.89 88.81 184.657 86.287 188.295 86.538 C 191.933 86.788 195.122 89.604 195.318 92.79 C 195.514 95.977 192.62 98.471 188.951 98.362 Z " fill="rgb(63,63,62)"/><path d=" M 188.329 128.153 C 184.689 128.398 181.917 125.872 182.078 122.544 C 182.239 119.216 185.296 116.432 188.966 116.328 C 192.636 116.224 195.536 118.723 195.346 121.91 C 195.155 125.097 191.969 127.908 188.329 128.153 Z " fill="rgb(63,63,62)"/><path d=" M 95.173 36.029 C 91.845 36.19 89.319 33.418 89.567 29.779 C 89.814 26.138 92.627 22.953 95.814 22.762 C 99.001 22.571 101.5 25.47 101.393 29.14 C 101.287 32.81 98.501 35.868 95.173 36.029 Z " fill="rgb(63,63,62)"/><path d=" M 125.588 36.037 C 122.259 35.874 119.471 32.815 119.363 29.146 C 119.255 25.476 121.752 22.579 124.94 22.772 C 128.127 22.965 130.942 26.151 131.191 29.791 C 131.44 33.43 128.916 36.2 125.588 36.037 Z " fill="rgb(191,66,63)"/><path d=" M 32.344 129.186 C 28.707 128.929 25.513 126.107 25.309 122.92 C 25.106 119.734 27.994 117.245 31.663 117.362 C 35.331 117.478 38.396 120.271 38.568 123.599 C 38.74 126.926 35.98 129.443 32.344 129.186 Z " fill="rgb(63,63,62)"/><path d=" M 31.609 99.396 C 27.938 99.493 25.03 96.987 25.213 93.801 C 25.396 90.615 28.577 87.81 32.22 87.572 C 35.862 87.333 38.641 89.865 38.486 93.192 C 38.332 96.52 35.279 99.298 31.609 99.396 Z " fill="rgb(63,63,62)"/><path d=" M 125.587 192.33 C 122.399 192.531 119.909 189.642 120.025 185.973 C 120.142 182.305 122.935 179.241 126.264 179.071 C 129.592 178.901 132.11 181.663 131.853 185.299 C 131.596 188.937 128.774 192.128 125.587 192.33 Z " fill="rgb(191,66,63)"/><path d=" M 96.461 192.418 C 93.274 192.236 90.468 189.055 90.228 185.413 C 89.989 181.771 92.52 178.992 95.848 179.146 C 99.176 179.299 101.957 182.352 102.055 186.022 C 102.153 189.693 99.648 192.601 96.461 192.418 Z " fill="rgb(63,63,62)"/><path d=" M 67.84 50.485 C 64.4 50.845 61.936 48.344 62.398 44.85 C 62.861 41.354 65.981 38.093 69.302 37.65 C 72.623 37.209 75.014 39.817 74.67 43.393 C 74.326 46.97 71.279 50.125 67.84 50.485 Z " fill="rgb(63,63,62)"/><path d=" M 153.837 177.237 C 150.517 177.707 148.15 175.134 148.52 171.572 C 148.889 168.012 151.954 164.851 155.393 164.467 C 158.832 164.083 161.276 166.549 160.788 170.024 C 160.3 173.499 157.157 176.767 153.837 177.237 Z " fill="rgb(63,63,62)"/><path d=" M 47.044 71.056 C 43.474 71.401 40.874 69.005 41.32 65.674 C 41.767 62.343 45.027 59.215 48.515 58.753 C 52.003 58.291 54.497 60.763 54.133 64.21 C 53.77 67.657 50.616 70.71 47.044 71.056 Z " fill="rgb(63,63,62)"/><path d=" M 127.557 107.571 C 127.557 117.051 119.777 124.831 110.296 124.831 C 100.815 124.831 93.036 117.051 93.036 107.571 C 93.036 98.09 100.815 90.311 110.296 90.311 C 119.777 90.311 127.557 98.09 127.557 107.571 Z " fill="rgb(46,121,72)"/><path d=" M 98.455 83.783 C 93.427 83.836 89.409 79.815 89.539 74.776 C 89.669 69.736 93.808 65.494 98.722 65.401 C 103.637 65.307 107.618 69.429 107.601 74.51 C 107.584 79.59 103.483 83.73 98.455 83.783 Z " fill="rgb(63,63,62)"/><path d=" M 78.473 101.972 C 76.013 101.988 73.704 101.066 71.987 99.392 C 70.268 97.719 69.35 95.495 69.406 93.109 C 69.461 90.723 70.481 88.456 72.261 86.709 C 74.038 84.963 76.358 83.95 78.793 83.881 C 81.229 83.812 83.493 84.699 85.183 86.385 C 86.875 88.071 87.792 90.351 87.762 92.789 C 87.731 95.229 86.756 97.531 85.002 99.265 C 83.251 100.999 80.933 101.955 78.473 101.972 Z " fill="rgb(63,63,62)"/><path d=" M 77.501 128.329 C 72.461 128.199 68.219 124.061 68.125 119.146 C 68.031 114.23 72.153 110.249 77.234 110.266 C 82.314 110.283 86.455 114.383 86.507 119.412 C 86.561 124.44 82.541 128.458 77.501 128.329 Z " fill="rgb(63,63,62)"/><path d=" M 95.836 148.461 C 93.45 148.406 91.183 147.386 89.437 145.607 C 87.69 143.829 86.677 141.51 86.608 139.074 C 86.539 136.638 87.424 134.375 89.111 132.684 C 90.796 130.992 93.077 130.074 95.515 130.105 C 97.954 130.135 100.257 131.111 101.99 132.863 C 103.725 134.615 104.68 136.933 104.697 139.394 C 104.713 141.854 103.792 144.161 102.118 145.879 C 100.445 147.598 98.222 148.516 95.836 148.461 Z " fill="rgb(63,63,62)"/><path d=" M 121.87 149.742 C 116.955 149.836 112.974 145.713 112.991 140.633 C 113.008 135.551 117.109 131.411 122.137 131.359 C 127.165 131.306 131.183 135.326 131.053 140.367 C 130.923 145.406 126.785 149.648 121.87 149.742 Z " fill="rgb(63,63,62)"/><path d=" M 141.799 131.261 C 139.363 131.33 137.101 130.444 135.409 128.757 C 133.717 127.071 132.8 124.791 132.831 122.353 C 132.861 119.913 133.837 117.611 135.59 115.877 C 137.341 114.143 139.659 113.186 142.12 113.17 C 144.581 113.154 146.889 114.076 148.607 115.75 C 152.152 119.204 152.004 124.828 148.333 128.433 C 146.554 130.18 144.235 131.192 141.799 131.261 Z " fill="rgb(63,63,62)"/><path d=" M 143.358 104.876 C 138.277 104.859 134.138 100.758 134.085 95.73 C 134.031 90.702 138.051 86.683 143.091 86.813 C 148.13 86.943 152.373 91.081 152.467 95.996 C 152.562 100.912 148.439 104.893 143.358 104.876 Z " fill="rgb(63,63,62)"/><path d=" M 125.077 85.037 C 122.639 85.007 120.335 84.03 118.601 82.278 C 116.868 80.526 115.912 78.209 115.895 75.749 C 115.879 73.287 116.8 70.98 118.474 69.263 C 120.147 67.544 122.371 66.625 124.756 66.68 C 127.142 66.735 129.41 67.756 131.156 69.535 C 132.903 71.313 133.915 73.632 133.984 76.068 C 134.054 78.503 133.168 80.766 131.481 82.458 C 129.796 84.149 127.515 85.067 125.077 85.037 Z " fill="rgb(63,63,62)"/><path d=" M 118.203 48.404 C 118.282 52.719 115.004 56.155 110.892 56.151 C 106.781 56.145 103.494 52.699 103.562 48.383 C 103.629 44.067 106.906 40.498 110.871 40.504 C 114.836 40.511 118.124 44.089 118.203 48.404 Z " fill="rgb(63,63,62)"/><path d=" M 89.25 52.543 C 91.119 56.153 89.747 60.954 86.054 63.244 C 82.36 65.533 77.771 64.5 75.935 60.981 C 74.099 57.461 75.703 52.714 79.364 50.335 C 83.024 47.954 87.382 48.933 89.25 52.543 Z " fill="rgb(63,63,62)"/><path d=" M 64.389 72.125 C 67.9 73.96 68.927 78.555 66.634 82.254 C 64.342 85.954 59.542 87.334 55.939 85.468 C 52.336 83.601 51.37 79.238 53.754 75.569 C 56.138 71.899 60.878 70.289 64.389 72.125 Z " fill="rgb(63,63,62)"/><path d=" M 51.127 99.663 C 55.442 99.584 58.878 102.863 58.874 106.975 C 58.868 111.088 55.422 114.375 51.106 114.308 C 46.789 114.241 43.22 110.963 43.227 106.996 C 43.233 103.03 46.812 99.742 51.127 99.663 Z " fill="rgb(79,119,185)"/><path d=" M 55.269 128.622 C 58.879 126.752 63.681 128.123 65.971 131.817 C 68.261 135.51 67.228 140.101 63.71 141.938 C 60.191 143.776 55.445 142.172 53.063 138.512 C 50.682 134.851 51.659 130.492 55.269 128.622 Z " fill="rgb(63,63,62)"/><path d=" M 74.856 153.483 C 76.69 149.971 81.284 148.943 84.983 151.235 C 88.683 153.526 90.064 158.326 88.198 161.93 C 86.333 165.533 81.972 166.501 78.302 164.118 C 74.633 161.735 73.022 156.995 74.856 153.483 Z " fill="rgb(63,63,62)"/><path d=" M 102.39 166.738 C 102.311 162.423 105.589 158.987 109.701 158.991 C 113.812 158.996 117.098 162.443 117.031 166.759 C 116.964 171.075 113.687 174.644 109.722 174.638 C 105.757 174.631 102.469 171.053 102.39 166.738 Z " fill="rgb(63,63,62)"/><path d=" M 131.343 162.599 C 129.474 158.989 130.846 154.188 134.539 151.898 C 138.233 149.609 142.822 150.642 144.658 154.161 C 146.494 157.681 144.89 162.427 141.229 164.807 C 137.569 167.188 133.212 166.209 131.343 162.599 Z " fill="rgb(63,63,62)"/><path d=" M 156.204 143.017 C 152.693 141.182 151.666 136.587 153.958 132.888 C 156.251 129.187 161.051 127.808 164.654 129.674 C 168.256 131.541 169.223 135.904 166.839 139.573 C 164.454 143.243 159.715 144.853 156.204 143.017 Z " fill="rgb(79,119,185)"/><path d=" M 169.465 115.479 C 165.15 115.558 161.714 112.279 161.719 108.167 C 161.724 104.054 165.17 100.767 169.486 100.834 C 173.803 100.901 177.373 104.179 177.366 108.145 C 177.359 112.111 173.78 115.4 169.465 115.479 Z " fill="rgb(63,63,62)"/><path d=" M 165.324 86.52 C 161.714 88.39 156.913 87.019 154.623 83.325 C 152.333 79.632 153.365 75.041 156.884 73.204 C 160.402 71.366 165.148 72.969 167.53 76.63 C 169.911 80.291 168.934 84.65 165.324 86.52 Z " fill="rgb(246,147,53)"/><path d=" M 145.737 61.659 C 143.903 65.171 139.309 66.199 135.61 63.907 C 131.91 61.616 130.529 56.816 132.395 53.212 C 134.26 49.609 138.622 48.641 142.291 51.024 C 145.96 53.407 147.571 58.147 145.737 61.659 Z " fill="rgb(63,63,62)"/></g><g><path d=" M 539.292 171.423 L 539.292 171.423 L 543.07 165.847 L 543.07 165.847 Q 543.699 164.857 544.779 164.677 L 544.779 164.677 L 544.779 164.677 Q 545.858 164.497 546.847 165.127 L 546.847 165.127 L 546.847 165.127 Q 550.895 167.645 554.763 169.444 L 554.763 169.444 L 554.763 169.444 Q 559.889 171.963 565.826 171.963 L 565.826 171.963 L 565.826 171.963 Q 568.884 171.963 571.222 171.153 L 571.222 171.153 L 571.222 171.153 Q 573.381 170.524 575.18 169.174 L 575.18 169.174 L 575.18 169.174 Q 576.799 167.915 577.609 166.386 L 577.609 166.386 L 577.609 166.386 Q 578.418 164.947 578.418 163.328 L 578.418 163.328 L 578.418 163.328 Q 578.418 161.439 577.159 159.91 L 577.159 159.91 L 577.159 159.91 Q 575.989 158.651 573.921 157.662 L 573.921 157.662 L 573.921 157.662 Q 572.931 157.212 571.762 156.852 L 571.762 156.852 L 571.762 156.852 Q 570.593 156.492 569.154 156.132 L 569.154 156.132 L 569.154 156.132 Q 567.805 155.773 566.41 155.503 L 566.41 155.503 L 566.41 155.503 Q 565.016 155.233 563.487 154.963 L 563.487 154.963 L 563.487 154.963 Q 562.498 154.783 561.328 154.558 L 561.328 154.558 L 561.328 154.558 Q 560.159 154.334 558.9 154.064 L 558.9 154.064 L 558.9 154.064 Q 556.292 153.704 553.503 152.715 L 553.503 152.715 L 553.503 152.715 Q 550.625 151.905 548.017 150.466 L 548.017 150.466 L 548.017 150.466 Q 545.318 149.117 543.16 146.958 L 543.16 146.958 L 543.16 146.958 Q 541.001 144.979 539.652 141.921 L 539.652 141.921 L 539.652 141.921 Q 538.393 138.953 538.393 135.085 L 538.393 135.085 L 538.393 135.085 Q 538.393 129.419 540.731 125.461 L 540.731 125.461 L 540.731 125.461 Q 542.98 121.774 546.667 119.435 L 546.667 119.435 L 546.667 119.435 Q 550.175 117.366 554.763 116.377 L 554.763 116.377 L 554.763 116.377 Q 558.99 115.477 563.397 115.477 L 563.397 115.477 L 563.397 115.477 Q 567.535 115.477 570.773 116.017 L 570.773 116.017 L 570.773 116.017 Q 572.392 116.287 573.876 116.692 L 573.876 116.692 L 573.876 116.692 Q 575.36 117.096 576.799 117.546 L 576.799 117.546 L 576.799 117.546 Q 578.238 118.086 579.587 118.76 L 579.587 118.76 L 579.587 118.76 Q 580.936 119.435 582.196 120.155 L 582.196 120.155 L 582.196 120.155 Q 583.095 120.694 583.905 121.234 L 583.905 121.234 L 583.905 121.234 Q 584.714 121.774 585.704 122.313 L 585.704 122.313 L 585.704 122.313 Q 586.693 123.033 586.873 124.112 L 586.873 124.112 L 586.873 124.112 Q 587.053 125.191 586.333 126.181 L 586.333 126.181 L 582.555 131.578 L 582.555 131.578 Q 581.836 132.567 580.712 132.747 L 580.712 132.747 L 580.712 132.747 Q 579.587 132.927 578.598 132.297 L 578.598 132.297 L 578.598 132.297 Q 575.09 130.048 571.942 128.879 L 571.942 128.879 L 571.942 128.879 Q 567.715 127.17 562.858 127.17 L 562.858 127.17 L 562.858 127.17 Q 562.048 127.17 561.104 127.26 L 561.104 127.26 L 561.104 127.26 Q 560.159 127.35 559.17 127.53 L 559.17 127.53 L 559.17 127.53 Q 557.101 127.98 555.212 128.879 L 555.212 128.879 L 555.212 128.879 Q 554.313 129.329 553.548 129.869 L 553.548 129.869 L 553.548 129.869 Q 552.784 130.408 552.154 131.128 L 552.154 131.128 L 552.154 131.128 Q 550.985 132.567 550.985 134.546 L 550.985 134.546 L 550.985 134.546 Q 550.985 136.524 552.424 137.874 L 552.424 137.874 L 552.424 137.874 Q 553.863 139.223 556.112 140.122 L 556.112 140.122 L 556.112 140.122 Q 557.281 140.572 558.495 140.932 L 558.495 140.932 L 558.495 140.932 Q 559.709 141.292 561.059 141.651 L 561.059 141.651 L 561.059 141.651 Q 562.408 142.011 563.712 142.281 L 563.712 142.281 L 563.712 142.281 Q 565.016 142.551 566.275 142.911 L 566.275 142.911 L 566.275 142.911 Q 567.265 143.09 568.344 143.36 L 568.344 143.36 L 568.344 143.36 Q 569.424 143.63 570.683 143.81 L 570.683 143.81 L 570.683 143.81 Q 571.942 143.99 573.291 144.305 L 573.291 144.305 L 573.291 144.305 Q 574.64 144.62 575.989 145.069 L 575.989 145.069 L 575.989 145.069 Q 576.709 145.249 577.474 145.519 L 577.474 145.519 L 577.474 145.519 Q 578.238 145.789 578.958 146.059 L 578.958 146.059 L 578.958 146.059 Q 580.037 146.508 581.431 147.228 L 581.431 147.228 L 581.431 147.228 Q 582.825 147.947 583.815 148.667 L 583.815 148.667 L 583.815 148.667 Q 584.534 149.117 585.119 149.611 L 585.119 149.611 L 585.119 149.611 Q 585.704 150.106 586.243 150.646 L 586.243 150.646 L 586.243 150.646 Q 588.492 152.894 589.661 155.863 L 589.661 155.863 L 589.661 155.863 Q 591.01 159.011 591.01 163.418 L 591.01 163.418 L 591.01 163.418 Q 591.01 168.455 589.211 172.323 L 589.211 172.323 L 589.211 172.323 Q 587.412 176.1 584.085 178.529 L 584.085 178.529 L 584.085 178.529 Q 580.667 181.137 576.169 182.306 L 576.169 182.306 L 576.169 182.306 Q 571.402 183.566 566.006 183.566 L 566.006 183.566 L 566.006 183.566 Q 560.789 183.566 556.921 182.756 L 556.921 182.756 L 556.921 182.756 Q 553.233 182.127 549.816 180.687 L 549.816 180.687 L 549.816 180.687 Q 548.197 180.058 546.667 179.293 L 546.667 179.293 L 546.667 179.293 Q 545.138 178.529 543.699 177.629 L 543.699 177.629 L 543.699 177.629 Q 542.8 177.09 541.9 176.505 L 541.9 176.505 L 541.9 176.505 Q 541.001 175.92 540.012 175.201 L 540.012 175.201 L 540.012 175.201 Q 539.022 174.571 538.842 173.492 L 538.842 173.492 L 538.842 173.492 Q 538.662 172.412 539.292 171.423 Z " fill="rgb(63,63,62)"/><path d=" M 528.92 127.62 L 528.92 127.62 L 515.698 127.62 L 515.698 127.62 Q 514.529 127.62 513.72 128.429 L 513.72 128.429 L 513.72 128.429 Q 512.91 129.239 512.91 130.408 L 512.91 130.408 L 512.91 179.518 L 512.91 179.518 Q 512.91 180.687 512.101 181.497 L 512.101 181.497 L 512.101 181.497 Q 511.291 182.306 510.122 182.306 L 510.122 182.306 L 503.106 182.306 L 503.106 182.306 Q 501.937 182.306 501.127 181.497 L 501.127 181.497 L 501.127 181.497 Q 500.318 180.687 500.318 179.518 L 500.318 179.518 L 500.318 130.408 L 500.318 130.408 Q 500.318 129.239 499.508 128.429 L 499.508 128.429 L 499.508 128.429 Q 498.699 127.62 497.53 127.62 L 497.53 127.62 L 484.218 127.62 L 484.218 127.62 Q 483.048 127.62 482.239 126.81 L 482.239 126.81 L 482.239 126.81 Q 481.429 126.001 481.429 124.832 L 481.429 124.832 L 481.429 119.255 L 481.429 119.255 Q 481.429 118.086 482.239 117.276 L 482.239 117.276 L 482.239 117.276 Q 483.048 116.467 484.218 116.467 L 484.218 116.467 L 528.92 116.467 L 528.92 116.467 Q 530.09 116.467 530.899 117.276 L 530.899 117.276 L 530.899 117.276 Q 531.709 118.086 531.709 119.255 L 531.709 119.255 L 531.709 124.832 L 531.709 124.832 Q 531.709 126.001 530.899 126.81 L 530.899 126.81 L 530.899 126.81 Q 530.09 127.62 528.92 127.62 Z " fill="rgb(63,63,62)"/><path d=" M 425.366 145.969 L 425.366 145.969 L 425.366 179.518 L 425.366 179.518 Q 425.366 180.687 424.556 181.497 L 424.556 181.497 L 424.556 181.497 Q 423.747 182.306 422.577 182.306 L 422.577 182.306 L 415.472 182.306 L 415.472 182.306 Q 414.392 182.306 413.583 181.497 L 413.583 181.497 L 413.583 181.497 Q 412.773 180.687 412.773 179.518 L 412.773 179.518 L 412.773 117.996 L 412.773 117.996 Q 412.773 116.827 413.898 116.602 L 413.898 116.602 L 413.898 116.602 Q 415.022 116.377 415.832 117.096 L 415.832 117.096 L 455.317 154.424 L 455.317 154.424 Q 456.217 155.233 456.801 154.963 L 456.801 154.963 L 456.801 154.963 Q 457.386 154.693 457.386 153.524 L 457.386 153.524 L 457.386 119.345 L 457.386 119.345 Q 457.386 118.176 458.196 117.366 L 458.196 117.366 L 458.196 117.366 Q 459.005 116.557 460.174 116.557 L 460.174 116.557 L 467.19 116.557 L 467.19 116.557 Q 468.359 116.557 469.169 117.366 L 469.169 117.366 L 469.169 117.366 Q 469.978 118.176 469.978 119.345 L 469.978 119.345 L 469.978 180.777 L 469.978 180.777 Q 469.978 181.947 468.854 182.171 L 468.854 182.171 L 468.854 182.171 Q 467.73 182.396 466.83 181.677 L 466.83 181.677 L 427.434 144.979 L 427.434 144.979 Q 426.535 144.26 425.95 144.53 L 425.95 144.53 L 425.95 144.53 Q 425.366 144.799 425.366 145.969 Z " fill="rgb(63,63,62)"/><path d=" M 393.767 182.306 L 393.767 182.306 L 386.661 182.306 L 386.661 182.306 Q 385.492 182.306 384.728 181.497 L 384.728 181.497 L 384.728 181.497 Q 383.963 180.687 383.963 179.518 L 383.963 179.518 L 383.963 119.345 L 383.963 119.345 Q 383.963 118.176 384.728 117.366 L 384.728 117.366 L 384.728 117.366 Q 385.492 116.557 386.661 116.557 L 386.661 116.557 L 393.767 116.557 L 393.767 116.557 Q 394.936 116.557 395.746 117.366 L 395.746 117.366 L 395.746 117.366 Q 396.555 118.176 396.555 119.345 L 396.555 119.345 L 396.555 179.518 L 396.555 179.518 Q 396.555 180.687 395.746 181.497 L 395.746 181.497 L 395.746 181.497 Q 394.936 182.306 393.767 182.306 Z " fill="rgb(63,63,62)"/><path d=" M 336.804 183.566 L 336.804 183.566 L 336.804 183.566 Q 329.788 183.566 323.582 180.867 L 323.582 180.867 L 323.582 180.867 Q 317.376 178.169 312.744 173.537 L 312.744 173.537 L 312.744 173.537 Q 308.111 168.905 305.413 162.698 L 305.413 162.698 L 305.413 162.698 Q 302.715 156.492 302.715 149.387 L 302.715 149.387 L 302.715 149.387 Q 302.715 142.371 305.413 136.12 L 305.413 136.12 L 305.413 136.12 Q 308.111 129.869 312.744 125.236 L 312.744 125.236 L 312.744 125.236 Q 317.376 120.604 323.582 117.906 L 323.582 117.906 L 323.582 117.906 Q 329.788 115.208 336.804 115.208 L 336.804 115.208 L 336.804 115.208 Q 343.909 115.208 350.116 117.906 L 350.116 117.906 L 350.116 117.906 Q 356.322 120.604 360.954 125.236 L 360.954 125.236 L 360.954 125.236 Q 365.586 129.869 368.284 136.12 L 368.284 136.12 L 368.284 136.12 Q 370.983 142.371 370.983 149.387 L 370.983 149.387 L 370.983 149.387 Q 370.983 156.492 368.284 162.698 L 368.284 162.698 L 368.284 162.698 Q 365.586 168.905 360.954 173.537 L 360.954 173.537 L 360.954 173.537 Q 356.322 178.169 350.116 180.867 L 350.116 180.867 L 350.116 180.867 Q 343.909 183.566 336.804 183.566 Z  M 336.849 126.99 L 336.849 126.99 L 336.849 126.99 Q 332.361 126.99 328.456 128.834 L 328.456 128.834 L 328.456 128.834 Q 324.552 130.678 321.635 133.736 L 321.635 133.736 L 321.635 133.736 Q 318.718 136.794 317.012 140.887 L 317.012 140.887 L 317.012 140.887 Q 315.307 144.979 315.307 149.387 L 315.307 149.387 L 315.307 149.387 Q 315.307 153.884 317.012 157.931 L 317.012 157.931 L 317.012 157.931 Q 318.718 161.979 321.635 165.082 L 321.635 165.082 L 321.635 165.082 Q 324.552 168.185 328.456 170.029 L 328.456 170.029 L 328.456 170.029 Q 332.361 171.873 336.849 171.873 L 336.849 171.873 L 336.849 171.873 Q 341.337 171.873 345.241 170.029 L 345.241 170.029 L 345.241 170.029 Q 349.146 168.185 352.063 165.082 L 352.063 165.082 L 352.063 165.082 Q 354.98 161.979 356.685 157.931 L 356.685 157.931 L 356.685 157.931 Q 358.391 153.884 358.391 149.387 L 358.391 149.387 L 358.391 149.387 Q 358.391 144.979 356.685 140.887 L 356.685 140.887 L 356.685 140.887 Q 354.98 136.794 352.063 133.736 L 352.063 133.736 L 352.063 133.736 Q 349.146 130.678 345.241 128.834 L 345.241 128.834 L 345.241 128.834 Q 341.337 126.99 336.849 126.99 Z " fill="rgb(63,63,62)"/><path d=" M 283.528 118.266 L 283.528 118.266 L 283.528 118.266 Q 287.756 120.155 290.904 123.303 L 290.904 123.303 L 290.904 123.303 Q 292.523 124.832 293.737 126.721 L 293.737 126.721 L 293.737 126.721 Q 294.951 128.609 295.941 130.678 L 295.941 130.678 L 295.941 130.678 Q 297.74 135.085 297.74 139.852 L 297.74 139.852 L 297.74 139.852 Q 297.74 144.709 296.121 148.847 L 296.121 148.847 L 296.121 148.847 Q 294.502 152.984 291.354 156.043 L 291.354 156.043 L 291.354 156.043 Q 288.295 159.101 283.438 160.9 L 283.438 160.9 L 283.438 160.9 Q 278.491 162.698 272.285 162.698 L 272.285 162.698 L 260.413 162.698 L 260.413 162.698 Q 259.243 162.698 258.434 163.508 L 258.434 163.508 L 258.434 163.508 Q 257.624 164.317 257.624 165.487 L 257.624 165.487 L 257.624 179.518 L 257.624 179.518 Q 257.624 180.687 256.86 181.497 L 256.86 181.497 L 256.86 181.497 Q 256.095 182.306 254.926 182.306 L 254.926 182.306 L 247.82 182.306 L 247.82 182.306 Q 246.651 182.306 245.841 181.497 L 245.841 181.497 L 245.841 181.497 Q 245.032 180.687 245.032 179.518 L 245.032 179.518 L 245.032 119.255 L 245.032 119.255 Q 245.032 118.086 245.841 117.276 L 245.841 117.276 L 245.841 117.276 Q 246.651 116.467 247.82 116.467 L 247.82 116.467 L 274.354 116.467 L 274.354 116.467 Q 279.121 116.467 283.528 118.266 Z  M 279.211 150.376 L 279.211 150.376 L 279.211 150.376 Q 281.28 149.477 282.629 147.858 L 282.629 147.858 L 282.629 147.858 Q 283.259 147.048 283.753 146.104 L 283.753 146.104 L 283.753 146.104 Q 284.248 145.159 284.518 144.17 L 284.518 144.17 L 284.518 144.17 Q 285.147 142.281 285.147 139.852 L 285.147 139.852 L 285.147 139.852 Q 285.147 137.694 284.338 135.355 L 284.338 135.355 L 284.338 135.355 Q 283.528 133.107 281.999 131.488 L 281.999 131.488 L 281.999 131.488 Q 280.56 129.779 278.222 128.699 L 278.222 128.699 L 278.222 128.699 Q 276.063 127.62 273.005 127.62 L 273.005 127.62 L 260.413 127.62 L 260.413 127.62 Q 259.243 127.62 258.434 128.429 L 258.434 128.429 L 258.434 128.429 Q 257.624 129.239 257.624 130.408 L 257.624 130.408 L 257.624 148.577 L 257.624 148.577 Q 257.624 149.746 258.434 150.556 L 258.434 150.556 L 258.434 150.556 Q 259.243 151.365 260.413 151.365 L 260.413 151.365 L 274.354 151.365 L 274.354 151.365 Q 277.052 151.365 279.211 150.376 Z " fill="rgb(63,63,62)"/></g><clipPath id="_clipPath_Xa9FTrIkrXqAYdAniOuEa8tmXWjl9cNy"><path d=" M 0 0 L 595.276 0 L 595.276 217.304 L 0 217.304 L 0 0 Z " fill="rgb(255,255,255)"/></clipPath><g clip-path="url(#_clipPath_Xa9FTrIkrXqAYdAniOuEa8tmXWjl9cNy)"><path d=" M 561.368 92.362 L 538.162 92.362 L 538.162 92.362 Q 536.993 92.362 536.228 91.552 L 536.228 91.552 L 536.228 91.552 Q 535.464 90.743 535.464 89.573 L 535.464 89.573 L 535.464 29.31 L 535.464 29.31 Q 535.464 28.141 536.228 27.332 L 536.228 27.332 L 536.228 27.332 Q 536.993 26.522 538.162 26.522 L 538.162 26.522 L 561.368 26.522 L 561.368 26.522 Q 575.489 26.522 584.574 34.797 L 584.574 34.797 L 584.574 34.797 Q 589.431 39.294 591.859 45.41 L 591.859 45.41 L 591.859 45.41 Q 594.378 51.976 594.378 59.442 L 594.378 59.442 L 594.378 59.442 Q 594.378 63.399 593.748 66.862 L 593.748 66.862 L 593.748 66.862 Q 593.118 70.325 591.859 73.473 L 591.859 73.473 L 591.859 73.473 Q 589.521 79.679 584.574 84.177 L 584.574 84.177 L 584.574 84.177 Q 579.986 88.314 574.23 90.293 L 574.23 90.293 L 574.23 90.293 Q 568.294 92.362 561.368 92.362 L 561.368 92.362 L 561.368 92.362 Z  M 550.754 81.208 L 550.754 81.208 L 561.458 81.208 L 561.458 81.208 Q 564.876 81.208 568.563 80.399 L 568.563 80.399 L 568.563 80.399 Q 572.071 79.589 575.039 77.161 L 575.039 77.161 L 575.039 77.161 Q 577.918 74.912 579.896 70.595 L 579.896 70.595 L 579.896 70.595 Q 581.785 66.457 581.785 59.532 L 581.785 59.532 L 581.785 59.532 Q 581.785 52.696 579.896 48.379 L 579.896 48.379 L 579.896 48.379 Q 577.918 44.061 575.039 41.813 L 575.039 41.813 L 575.039 41.813 Q 572.071 39.474 568.473 38.665 L 568.473 38.665 L 568.473 38.665 Q 564.786 37.855 561.458 37.855 L 561.458 37.855 L 550.754 37.855 L 550.754 37.855 Q 549.585 37.855 548.821 38.665 L 548.821 38.665 L 548.821 38.665 Q 548.056 39.474 548.056 40.643 L 548.056 40.643 L 548.056 78.42 L 548.056 78.42 Q 548.056 79.589 548.821 80.399 L 548.821 80.399 L 548.821 80.399 Q 549.585 81.208 550.754 81.208 Z " fill="rgb(63,63,62)"/><path d=" M 486.624 40.463 L 486.624 40.463 L 486.624 51.347 L 486.624 51.347 Q 486.624 52.516 487.433 53.326 L 487.433 53.326 L 487.433 53.326 Q 488.243 54.135 489.412 54.135 L 489.412 54.135 L 515.676 54.135 L 515.676 54.135 Q 516.845 54.135 517.655 54.945 L 517.655 54.945 L 517.655 54.945 Q 518.464 55.754 518.464 56.923 L 518.464 56.923 L 518.464 62.77 L 518.464 62.77 Q 518.464 63.939 517.655 64.749 L 517.655 64.749 L 517.655 64.749 Q 516.845 65.558 515.676 65.558 L 515.676 65.558 L 489.412 65.558 L 489.412 65.558 Q 488.243 65.558 487.433 66.368 L 487.433 66.368 L 487.433 66.368 Q 486.624 67.177 486.624 68.346 L 486.624 68.346 L 486.624 78.24 L 486.624 78.24 Q 486.624 79.41 487.433 80.219 L 487.433 80.219 L 487.433 80.219 Q 488.243 81.029 489.412 81.029 L 489.412 81.029 L 519.723 81.029 L 519.723 81.029 Q 520.893 81.029 521.702 81.838 L 521.702 81.838 L 521.702 81.838 Q 522.512 82.648 522.512 83.817 L 522.512 83.817 L 522.512 89.573 L 522.512 89.573 Q 522.512 90.743 521.702 91.552 L 521.702 91.552 L 521.702 91.552 Q 520.893 92.362 519.723 92.362 L 519.723 92.362 L 476.82 92.362 L 476.82 92.362 Q 475.65 92.362 474.841 91.552 L 474.841 91.552 L 474.841 91.552 Q 474.031 90.743 474.031 89.573 L 474.031 89.573 L 474.031 29.31 L 474.031 29.31 Q 474.031 28.141 474.841 27.332 L 474.841 27.332 L 474.841 27.332 Q 475.65 26.522 476.82 26.522 L 476.82 26.522 L 519.723 26.522 L 519.723 26.522 Q 520.893 26.522 521.702 27.332 L 521.702 27.332 L 521.702 27.332 Q 522.512 28.141 522.512 29.31 L 522.512 29.31 L 522.512 34.887 L 522.512 34.887 Q 522.512 36.056 521.702 36.866 L 521.702 36.866 L 521.702 36.866 Q 520.893 37.675 519.723 37.675 L 519.723 37.675 L 489.412 37.675 L 489.412 37.675 Q 488.243 37.675 487.433 38.485 L 487.433 38.485 L 487.433 38.485 Q 486.624 39.294 486.624 40.463 Z " fill="rgb(63,63,62)"/><path d=" M 462.608 37.675 L 462.608 37.675 L 449.387 37.675 L 449.387 37.675 Q 448.217 37.675 447.408 38.485 L 447.408 38.485 L 447.408 38.485 Q 446.598 39.294 446.598 40.463 L 446.598 40.463 L 446.598 89.573 L 446.598 89.573 Q 446.598 90.743 445.789 91.552 L 445.789 91.552 L 445.789 91.552 Q 444.979 92.362 443.81 92.362 L 443.81 92.362 L 436.794 92.362 L 436.794 92.362 Q 435.625 92.362 434.816 91.552 L 434.816 91.552 L 434.816 91.552 Q 434.006 90.743 434.006 89.573 L 434.006 89.573 L 434.006 40.463 L 434.006 40.463 Q 434.006 39.294 433.197 38.485 L 433.197 38.485 L 433.197 38.485 Q 432.387 37.675 431.218 37.675 L 431.218 37.675 L 417.906 37.675 L 417.906 37.675 Q 416.737 37.675 415.927 36.866 L 415.927 36.866 L 415.927 36.866 Q 415.118 36.056 415.118 34.887 L 415.118 34.887 L 415.118 29.31 L 415.118 29.31 Q 415.118 28.141 415.927 27.332 L 415.927 27.332 L 415.927 27.332 Q 416.737 26.522 417.906 26.522 L 417.906 26.522 L 462.608 26.522 L 462.608 26.522 Q 463.778 26.522 464.587 27.332 L 464.587 27.332 L 464.587 27.332 Q 465.397 28.141 465.397 29.31 L 465.397 29.31 L 465.397 34.887 L 465.397 34.887 Q 465.397 36.056 464.587 36.866 L 464.587 36.866 L 464.587 36.866 Q 463.778 37.675 462.608 37.675 Z " fill="rgb(63,63,62)"/><path d=" M 399.107 92.362 L 399.107 92.362 L 392.002 92.362 L 392.002 92.362 Q 390.833 92.362 390.068 91.552 L 390.068 91.552 L 390.068 91.552 Q 389.303 90.743 389.303 89.573 L 389.303 89.573 L 389.303 29.4 L 389.303 29.4 Q 389.303 28.231 390.068 27.421 L 390.068 27.421 L 390.068 27.421 Q 390.833 26.612 392.002 26.612 L 392.002 26.612 L 399.107 26.612 L 399.107 26.612 Q 400.277 26.612 401.086 27.421 L 401.086 27.421 L 401.086 27.421 Q 401.896 28.231 401.896 29.4 L 401.896 29.4 L 401.896 89.573 L 401.896 89.573 Q 401.896 90.743 401.086 91.552 L 401.086 91.552 L 401.086 91.552 Q 400.277 92.362 399.107 92.362 Z " fill="rgb(63,63,62)"/><path d=" M 328.501 56.024 L 328.501 56.024 L 328.501 89.573 L 328.501 89.573 Q 328.501 90.743 327.691 91.552 L 327.691 91.552 L 327.691 91.552 Q 326.882 92.362 325.712 92.362 L 325.712 92.362 L 318.607 92.362 L 318.607 92.362 Q 317.527 92.362 316.718 91.552 L 316.718 91.552 L 316.718 91.552 Q 315.908 90.743 315.908 89.573 L 315.908 89.573 L 315.908 28.051 L 315.908 28.051 Q 315.908 26.882 317.033 26.657 L 317.033 26.657 L 317.033 26.657 Q 318.157 26.432 318.967 27.152 L 318.967 27.152 L 358.452 64.479 L 358.452 64.479 Q 359.352 65.288 359.936 65.018 L 359.936 65.018 L 359.936 65.018 Q 360.521 64.749 360.521 63.579 L 360.521 63.579 L 360.521 29.4 L 360.521 29.4 Q 360.521 28.231 361.331 27.421 L 361.331 27.421 L 361.331 27.421 Q 362.14 26.612 363.309 26.612 L 363.309 26.612 L 370.325 26.612 L 370.325 26.612 Q 371.494 26.612 372.304 27.421 L 372.304 27.421 L 372.304 27.421 Q 373.113 28.231 373.113 29.4 L 373.113 29.4 L 373.113 90.833 L 373.113 90.833 Q 373.113 92.002 371.989 92.227 L 371.989 92.227 L 371.989 92.227 Q 370.865 92.452 369.965 91.732 L 369.965 91.732 L 330.569 55.035 L 330.569 55.035 Q 329.67 54.315 329.085 54.585 L 329.085 54.585 L 329.085 54.585 Q 328.501 54.855 328.501 56.024 Z " fill="rgb(63,63,62)"/><path d=" M 261.672 91.552 L 261.672 91.552 L 261.672 91.552 Q 256.275 89.483 252.767 85.976 L 252.767 85.976 L 252.767 85.976 Q 248.99 82.378 247.011 77.251 L 247.011 77.251 L 247.011 77.251 Q 245.032 72.214 245.032 65.828 L 245.032 65.828 L 245.032 29.4 L 245.032 29.4 Q 245.032 28.231 245.841 27.421 L 245.841 27.421 L 245.841 27.421 Q 246.651 26.612 247.73 26.612 L 247.73 26.612 L 254.836 26.612 L 254.836 26.612 Q 256.005 26.612 256.815 27.421 L 256.815 27.421 L 256.815 27.421 Q 257.624 28.231 257.624 29.4 L 257.624 29.4 L 257.624 65.738 L 257.624 65.738 Q 257.624 70.685 259.243 73.923 L 259.243 73.923 L 259.243 73.923 Q 260.862 77.071 263.201 79.05 L 263.201 79.05 L 263.201 79.05 Q 265.719 81.029 268.328 81.658 L 268.328 81.658 L 268.328 81.658 Q 269.767 82.018 270.981 82.198 L 270.981 82.198 L 270.981 82.198 Q 272.195 82.378 273.275 82.378 L 273.275 82.378 L 273.275 82.378 Q 275.253 82.378 278.132 81.658 L 278.132 81.658 L 278.132 81.658 Q 280.92 81.029 283.259 79.05 L 283.259 79.05 L 283.259 79.05 Q 285.687 77.161 287.306 73.923 L 287.306 73.923 L 287.306 73.923 Q 288.925 70.685 288.925 65.738 L 288.925 65.738 L 288.925 29.4 L 288.925 29.4 Q 288.925 28.231 289.735 27.421 L 289.735 27.421 L 289.735 27.421 Q 290.544 26.612 291.713 26.612 L 291.713 26.612 L 298.729 26.612 L 298.729 26.612 Q 299.898 26.612 300.708 27.421 L 300.708 27.421 L 300.708 27.421 Q 301.517 28.231 301.517 29.4 L 301.517 29.4 L 301.517 65.828 L 301.517 65.828 Q 301.517 68.976 301.023 71.809 L 301.023 71.809 L 301.023 71.809 Q 300.528 74.642 299.539 77.251 L 299.539 77.251 L 299.539 77.251 Q 297.56 82.288 293.872 85.976 L 293.872 85.976 L 293.872 85.976 Q 290.274 89.483 284.967 91.552 L 284.967 91.552 L 284.967 91.552 Q 279.841 93.531 273.275 93.531 L 273.275 93.531 L 273.275 93.531 Q 266.709 93.531 261.672 91.552 Z " fill="rgb(63,63,62)"/></g></g></svg>
